# xmcd
#
# Track frame offsets:
#	150
#	9682
#	24097
#	39610
#	55355
#	73097
#	89152
#	107872
#	120195
#	134617
#	151915
#	166450
#	184762
#	195602
#	212587
#	228400
#	250907
#
# Disc length: 3563 seconds
#
# Revision: 0
# Processed by: cddbd v1.4PL0 Copyright (c) Steve Scherf et al.
# Submitted via: audiograbber 1.80
#
DISCID=eb0de911
DTITLE=Various Artist - Open Road 3
DYEAR=1900
DGENRE=
TTITLE0=Cathrine Britt - That Don't Bother Me
TTITLE1=Wayne Law - Two Ton Chance
TTITLE2=Nicole Brophy and Jodi Moore - Should've Told You
TTITLE3=Kylie Sackley - How Do I Know
TTITLE4=Jamahl Hamilton - Leaving You Tommorrow
TTITLE5=Karen O'Shea - My Love Goes That Far
TTITLE6=Tamika Kellehear - Everything
TTITLE7=Kevin Bennett and James Gillard - Higher Ground
TTITLE8=Pru Clearwater - Kinda Exactly Like You
TTITLE9=Kate Ballantyne - When I'm Holding You
TTITLE10=Micheal G Carr - The Same Town
TTITLE11=Radio Cowboys - Life After You
TTITLE12=Audrey Auld - I'd Leave Me Too
TTITLE13=Stephen Dix - She Didn't Know
TTITLE14=Tamika Kellehear and Micheal O'Rourke - That Was Then
TTITLE15=Mary-Anne Burton - Give Me Some Time
TTITLE16=Hard Road - South Of The Murray
EXTD=
EXTT0=
EXTT1=
EXTT2=
EXTT3=
EXTT4=
EXTT5=
EXTT6=
EXTT7=
EXTT8=
EXTT9=
EXTT10=
EXTT11=
EXTT12=
EXTT13=
EXTT14=
EXTT15=
EXTT16=
PLAYORDER=
